<?xml version="1.0" encoding="UTF-8" standalone="no"?>
<svg
   xmlns:dc="http://purl.org/dc/elements/1.1/"
   xmlns:cc="http://creativecommons.org/ns#"
   xmlns:rdf="http://www.w3.org/1999/02/22-rdf-syntax-ns#"
   xmlns:svg="http://www.w3.org/2000/svg"
   xmlns="http://www.w3.org/2000/svg"
   version="1.1"
   id="svg2"
   height="111.882"
   width="262"
   viewBox="149 78 262 111.882"
   style="isolation:isolate">
  <metadata
     id="metadata12">
    <rdf:RDF>
      <cc:Work
         rdf:about="">
        <dc:format>image/svg+xml</dc:format>
        <dc:type
           rdf:resource="http://purl.org/dc/dcmitype/StillImage" />
        <dc:title></dc:title>
      </cc:Work>
    </rdf:RDF>
  </metadata>
  <defs
     id="defs10" />
  <g
     id="bus">
    <g
       id="g3">
      <path
         id="path6"
         fill="rgb(1,14,59)"
         d=" M 409.22 111.389 L 396.253 98.422 C 395.114 97.283 393.568 96.642 391.956 96.642 L 385.968 96.642 L 385.968 84.077 C 385.968 80.721 383.248 78 379.891 78 L 155.077 78 C 151.721 78 149 80.721 149 84.077 L 149 168.791 C 149 172.147 151.721 174.868 155.077 174.868 L 172.622 174.868 C 174.661 183.465 182.397 189.882 191.609 189.882 C 200.82 189.882 208.557 183.465 210.596 174.868 L 224.175 174.868 C 226.214 183.465 233.95 189.882 243.162 189.882 C 252.374 189.882 260.11 183.465 262.148 174.868 L 317.832 174.868 C 319.87 183.465 327.607 189.882 336.818 189.882 C 346.03 189.882 353.766 183.465 355.805 174.868 L 379.89 174.868 C 383.246 174.868 385.967 172.147 385.967 168.791 L 385.967 108.796 L 389.438 108.796 L 400.625 119.983 C 401.812 121.17 403.367 121.763 404.922 121.763 C 406.477 121.763 408.033 121.17 409.219 119.983 C 411.593 117.61 411.593 113.762 409.22 111.389 L 409.22 111.389 Z  M 344.182 170.365 C 344.182 174.425 340.879 177.728 336.819 177.728 C 332.759 177.728 329.456 174.425 329.456 170.365 C 329.456 166.305 332.759 163.002 336.819 163.002 C 340.879 163.002 344.182 166.305 344.182 170.365 Z  M 250.525 170.365 C 250.525 174.425 247.222 177.728 243.162 177.728 C 239.102 177.728 235.799 174.425 235.799 170.365 C 235.799 166.305 239.102 163.002 243.162 163.002 C 247.222 163.002 250.525 166.305 250.525 170.365 L 250.525 170.365 Z  M 198.972 170.365 C 198.972 174.425 195.669 177.728 191.609 177.728 C 187.549 177.728 184.246 174.425 184.246 170.365 C 184.246 166.305 187.549 163.002 191.609 163.002 C 195.669 163.002 198.972 166.305 198.972 170.365 Z " />
    </g>
  </g>
  <g
     transform="translate(1.366061,0.296549)"
     id="g4150"
     style="isolation:isolate">
    <path
       style="fill:#ffffff;fill-rule:evenodd"
       d="m 202.48,138.92 -3.12,7.92 -16,0 21.04,-50 23.52,0 3.52,50 -16.08,0 -0.32,-7.92 -12.56,0 z m 4.96,-12.72 6.4,0 0,-14 -0.8,0 -5.6,14 z M 182.32,143 180.8,146.52 148,143 l 34.32,0 z m 3.28,-7.76 -1.52,3.52 -32.8,-3.52 34.32,0 z m 3.2,-7.68 -1.44,3.52 -32.8,-3.52 34.24,0 z m 3.28,-7.68 -1.52,3.52 -32.72,-3.52 34.24,0 z m 3.2,-7.68 -1.44,3.52 -32.72,-3.52 34.16,0 z m 6.48,-15.36 -1.44,3.44 -32.64,-3.44 34.08,0 z m -3.28,7.68 -1.44,3.44 -32.64,-3.44 34.08,0 z m -30.8,-7.68 32.64,3.44 1.44,-3.44 -34.08,0 z m 104.52,0 24,0 0,0 q 13.68,0 13.68,12.24 l 0,0 0,0 q 0,5.04 -1.52,9.6 l 0,0 0,0 q -2.8,8.64 -8.8,11.52 l 0,0 5.28,16.64 -16.72,0 -3.68,-14.88 -3.28,0 -2.56,14.88 -15.2,0 8.8,-50 z m 11.12,22.8 3.52,0 0,0 q 2.72,0 4.12,-0.6 l 0,0 0,0 q 1.4,-0.6 1.92,-3.44 l 0,0 0,0 q 0.52,-2.84 0.52,-3.48 l 0,0 0,0 q 0,-1.6 -1.24,-2.04 l 0,0 0,0 q -1.24,-0.44 -4.04,-0.44 l 0,0 -3.04,0 -1.76,10 z M 261.64,143 261,146.6 227.08,143 l 34.56,0 z m 2.72,-15.44 -0.64,3.6 -33.92,-3.6 34.56,0 z m 2.64,-15.36 -0.64,3.6 -33.84,-3.6 34.48,0 z m 1.36,-7.68 -0.64,3.6 -33.84,-3.6 34.48,0 z m -5.36,30.72 -0.64,3.6 -33.92,-3.6 34.56,0 z m 6.72,-38.4 -0.64,3.6 -33.84,-3.6 34.48,0 z m -4.08,23.04 -0.64,3.6 -33.84,-3.6 34.48,0 z m 117.24,-23.04 -2.32,12.8 -11.04,0 -6.48,37.2 -15.2,0 6.48,-37.2 -10.96,0 2.32,-12.8 37.2,0 z M 346,143 l -0.64,3.6 -33.92,-3.6 34.56,0 z m 2.72,-15.44 -0.64,3.6 -33.92,-3.6 34.56,0 z m 1.36,-7.68 -0.64,3.6 -33.92,-3.6 34.56,0 z m 1.36,-7.68 -0.64,3.6 -33.92,-3.6 34.56,0 z m -4.08,23.04 -0.64,3.6 -33.92,-3.6 34.56,0 z m -5.6,-30.72 -0.56,3.6 -33.92,-3.6 34.48,0 z m 1.36,-7.68 -0.64,3.6 -33.84,-3.6 34.48,0 z"
       id="path4142" />
  </g>
</svg>
