<?xml version="1.0" encoding="UTF-8" standalone="no"?>
<svg
   xmlns:dc="http://purl.org/dc/elements/1.1/"
   xmlns:cc="http://creativecommons.org/ns#"
   xmlns:rdf="http://www.w3.org/1999/02/22-rdf-syntax-ns#"
   xmlns:svg="http://www.w3.org/2000/svg"
   xmlns="http://www.w3.org/2000/svg"
   style="isolation:isolate"
   viewBox="149 78 262 111.882"
   width="262"
   height="111.882"
   id="svg2"
   version="1.1">
  <metadata
     id="metadata12">
    <rdf:RDF>
      <cc:Work
         rdf:about="">
        <dc:format>image/svg+xml</dc:format>
        <dc:type
           rdf:resource="http://purl.org/dc/dcmitype/StillImage" />
        <dc:title></dc:title>
      </cc:Work>
    </rdf:RDF>
  </metadata>
  <defs
     id="defs10" />
  <g
     id="bus">
    <g
       id="g3">
      <path
         style="fill:#ffffff;fill-opacity:1"
         d="M 409.22,111.389 396.253,98.422 c -1.139,-1.139 -2.685,-1.78 -4.297,-1.78 l -5.988,0 0,-5.816515 c 0,2.819399 0.62417,-12.407068 -19.95925,-12.428515 L 175.52094,78.198485 C 155.88534,78.178025 149,89.454333 149,95.986091 l 0,72.804909 c 0,3.356 2.721,6.077 6.077,6.077 l 17.545,0 c 2.039,8.597 9.775,15.014 18.987,15.014 9.211,0 16.948,-6.417 18.987,-15.014 l 13.579,0 c 2.039,8.597 9.775,15.014 18.987,15.014 9.212,0 16.948,-6.417 18.986,-15.014 l 55.684,0 c 2.038,8.597 9.775,15.014 18.986,15.014 9.212,0 16.948,-6.417 18.987,-15.014 l 24.085,0 c 3.356,0 6.077,-2.721 6.077,-6.077 l 0,-59.995 3.471,0 11.187,11.187 c 1.187,1.187 2.742,1.78 4.297,1.78 1.555,0 3.111,-0.593 4.297,-1.78 2.374,-2.373 2.374,-6.221 0.001,-8.594 z m -65.038,58.976 c 0,4.06 -3.303,7.363 -7.363,7.363 -4.06,0 -7.363,-3.303 -7.363,-7.363 0,-4.06 3.303,-7.363 7.363,-7.363 4.06,0 7.363,3.303 7.363,7.363 z m -93.657,0 c 0,4.06 -3.303,7.363 -7.363,7.363 -4.06,0 -7.363,-3.303 -7.363,-7.363 0,-4.06 3.303,-7.363 7.363,-7.363 4.06,0 7.363,3.303 7.363,7.363 z m -51.553,0 c 0,4.06 -3.303,7.363 -7.363,7.363 -4.06,0 -7.363,-3.303 -7.363,-7.363 0,-4.06 3.303,-7.363 7.363,-7.363 4.06,0 7.363,3.303 7.363,7.363 z"
         id="path6" />
    </g>
  </g>
  <g
     style="isolation:isolate"
     id="g4150"
     transform="translate(1.366061,0.296549)">
    <path
       id="path4142"
       d="m 202.48,138.92 -3.12,7.92 -16,0 21.04,-50 23.52,0 3.52,50 -16.08,0 -0.32,-7.92 -12.56,0 z m 4.96,-12.72 6.4,0 0,-14 -0.8,0 -5.6,14 z M 182.32,143 180.8,146.52 148,143 l 34.32,0 z m 3.28,-7.76 -1.52,3.52 -32.8,-3.52 34.32,0 z m 3.2,-7.68 -1.44,3.52 -32.8,-3.52 34.24,0 z m 3.28,-7.68 -1.52,3.52 -32.72,-3.52 34.24,0 z m 3.2,-7.68 -1.44,3.52 -32.72,-3.52 34.16,0 z m 6.48,-15.36 -1.44,3.44 -32.64,-3.44 34.08,0 z m -3.28,7.68 -1.44,3.44 -32.64,-3.44 34.08,0 z m -30.8,-7.68 32.64,3.44 1.44,-3.44 -34.08,0 z m 104.52,0 24,0 0,0 q 13.68,0 13.68,12.24 l 0,0 0,0 q 0,5.04 -1.52,9.6 l 0,0 0,0 q -2.8,8.64 -8.8,11.52 l 0,0 5.28,16.64 -16.72,0 -3.68,-14.88 -3.28,0 -2.56,14.88 -15.2,0 8.8,-50 z m 11.12,22.8 3.52,0 0,0 q 2.72,0 4.12,-0.6 l 0,0 0,0 q 1.4,-0.6 1.92,-3.44 l 0,0 0,0 q 0.52,-2.84 0.52,-3.48 l 0,0 0,0 q 0,-1.6 -1.24,-2.04 l 0,0 0,0 q -1.24,-0.44 -4.04,-0.44 l 0,0 -3.04,0 -1.76,10 z M 261.64,143 261,146.6 227.08,143 l 34.56,0 z m 2.72,-15.44 -0.64,3.6 -33.92,-3.6 34.56,0 z m 2.64,-15.36 -0.64,3.6 -33.84,-3.6 34.48,0 z m 1.36,-7.68 -0.64,3.6 -33.84,-3.6 34.48,0 z m -5.36,30.72 -0.64,3.6 -33.92,-3.6 34.56,0 z m 6.72,-38.4 -0.64,3.6 -33.84,-3.6 34.48,0 z m -4.08,23.04 -0.64,3.6 -33.84,-3.6 34.48,0 z m 117.24,-23.04 -2.32,12.8 -11.04,0 -6.48,37.2 -15.2,0 6.48,-37.2 -10.96,0 2.32,-12.8 37.2,0 z M 346,143 l -0.64,3.6 -33.92,-3.6 34.56,0 z m 2.72,-15.44 -0.64,3.6 -33.92,-3.6 34.56,0 z m 1.36,-7.68 -0.64,3.6 -33.92,-3.6 34.56,0 z m 1.36,-7.68 -0.64,3.6 -33.92,-3.6 34.56,0 z m -4.08,23.04 -0.64,3.6 -33.92,-3.6 34.56,0 z m -5.6,-30.72 -0.56,3.6 -33.92,-3.6 34.48,0 z m 1.36,-7.68 -0.64,3.6 -33.84,-3.6 34.48,0 z"
       style="fill:#010e3b;fill-rule:evenodd;fill-opacity:1" />
  </g>
</svg>
