<?xml version="1.0" standalone="no"?><!-- Generator: Gravit.io --><svg xmlns="http://www.w3.org/2000/svg" xmlns:xlink="http://www.w3.org/1999/xlink" style="isolation:isolate" viewBox="0 0 262 111.882" width="262" height="111.882"><defs><clipPath id="_clipPath_OckDmHQCXbNG0xF3Z5VtWRsgXZ6r6FHo"><rect width="262" height="111.882"/></clipPath></defs><g clip-path="url(#_clipPath_OckDmHQCXbNG0xF3Z5VtWRsgXZ6r6FHo)"><g id="bus"><g id="g3"><path d=" M 260.22 33.389 L 247.253 20.422 C 246.114 19.283 244.568 18.642 242.956 18.642 L 236.968 18.642 L 236.968 12.825 C 236.968 15.645 237.592 0.418 217.009 0.397 L 26.521 0.198 C 6.885 0.178 0 11.454 0 17.986 L 0 90.791 C 0 94.147 2.721 96.868 6.077 96.868 L 23.622 96.868 C 25.661 105.465 33.397 111.882 42.609 111.882 C 51.82 111.882 59.557 105.465 61.596 96.868 L 75.175 96.868 C 77.214 105.465 84.95 111.882 94.162 111.882 C 103.374 111.882 111.11 105.465 113.148 96.868 L 168.832 96.868 C 170.87 105.465 178.607 111.882 187.818 111.882 C 197.03 111.882 204.766 105.465 206.805 96.868 L 230.89 96.868 C 234.246 96.868 236.967 94.147 236.967 90.791 L 236.967 30.796 L 240.438 30.796 L 251.625 41.983 C 252.812 43.17 254.367 43.763 255.922 43.763 C 257.477 43.763 259.033 43.17 260.219 41.983 C 262.593 39.61 262.593 35.762 260.22 33.389 Z  M 195.182 92.365 C 195.182 96.425 191.879 99.728 187.819 99.728 C 183.759 99.728 180.456 96.425 180.456 92.365 C 180.456 88.305 183.759 85.002 187.819 85.002 C 191.879 85.002 195.182 88.305 195.182 92.365 Z  M 101.525 92.365 C 101.525 96.425 98.222 99.728 94.162 99.728 C 90.102 99.728 86.799 96.425 86.799 92.365 C 86.799 88.305 90.102 85.002 94.162 85.002 C 98.222 85.002 101.525 88.305 101.525 92.365 Z  M 49.972 92.365 C 49.972 96.425 46.669 99.728 42.609 99.728 C 38.549 99.728 35.246 96.425 35.246 92.365 C 35.246 88.305 38.549 85.002 42.609 85.002 C 46.669 85.002 49.972 88.305 49.972 92.365 Z " fill="rgb(1,14,59)"/></g></g><path d=" M 156.339 70.632 L 156.339 70.632 L 140.901 79.86 L 140.901 79.86 Q 132.252 71.691 124.161 60.208 L 124.161 60.208 L 124.161 60.208 Q 117.93 51.422 114.024 43.793 L 114.024 43.793 L 114.024 43.793 Q 119.883 39.939 125.742 36.009 L 125.742 36.009 L 125.742 36.009 Q 130.02 32.31 130.02 28.996 L 130.02 28.996 L 130.02 28.996 Q 130.02 27.454 127.509 26.722 L 127.509 26.722 L 127.509 26.722 Q 124.998 25.99 119.325 25.99 L 119.325 25.99 L 91.239 25.99 L 95.889 9.808 L 130.671 9.808 L 130.671 9.808 Q 140.808 9.808 146.295 14.703 L 146.295 14.703 L 146.295 14.703 Q 151.224 19.116 151.224 26.178 L 151.224 26.178 L 151.224 26.178 Q 151.224 31.474 147.225 36.649 L 147.225 36.649 L 147.225 36.649 Q 143.226 41.825 136.158 45.195 L 136.158 45.195 L 136.158 45.195 Q 140.436 52.257 144.714 57.553 L 144.714 57.553 L 144.714 57.553 Q 148.062 61.725 156.339 70.632 Z  M 113.373 27.292 L 113.373 79.93 L 95.238 79.93 L 95.238 27.292 L 113.373 27.292 Z  M 217.511 9.808 L 221.51 25.99 L 202.073 25.99 L 202.073 80.023 L 183.194 80.023 L 183.194 25.99 L 163.85 25.99 L 168.5 9.808 L 217.511 9.808 Z  M 72.311 9.808 L 76.961 26.641 L 63.662 26.641 L 63.662 26.641 Q 53.339 26.641 48.968 28.512 L 48.968 28.512 L 48.968 28.512 Q 41.435 31.787 37.529 42.265 L 37.529 42.265 L 55.478 42.265 L 55.478 28.036 L 74.357 28.036 L 74.357 79.93 L 55.478 79.93 L 55.478 58.261 L 36.041 58.261 L 36.041 58.261 Q 36.041 61.638 38.366 65.97 L 38.366 65.97 L 38.366 65.97 Q 40.691 70.303 43.481 72.979 L 43.481 72.979 L 28.043 79.86 L 28.043 79.86 Q 20.882 69.34 20.789 69.177 L 20.789 69.177 L 20.789 69.177 Q 16.511 60.859 16.511 49.442 L 16.511 49.442 L 16.511 49.442 Q 16.511 31.908 26.555 21.551 L 26.555 21.551 L 26.555 21.551 Q 37.901 9.808 60.314 9.808 L 60.314 9.808 L 72.311 9.808 Z " fill-rule="evenodd" fill="rgb(255,255,255)"/></g></svg>